<?xml version="1.0" encoding="utf-8"?>
<!-- Generator: Adobe Illustrator 19.2.1, SVG Export Plug-In . SVG Version: 6.00 Build 0)  -->
<svg version="1.1" id="Layer_1" xmlns="http://www.w3.org/2000/svg" xmlns:xlink="http://www.w3.org/1999/xlink" x="0px" y="0px"
	 viewBox="0 0 238 80" style="enable-background:new 0 0 238 80;" xml:space="preserve">
<style type="text/css">
	.st0{fill:#A90533;}
	.st1{fill:#939598;}
</style>
<g>
	<g>
		<g>
			<path d="M112.9,16.2c0,0.3-0.1,0.4-0.5,0.4c-0.3,0-0.4-0.1-0.5-0.3c-1.3-3.2-0.1-4.4-7.6-4.4c-2.4,0-2.8,0.3-2.8,1.7V21
				c0,1.4,0.2,1.6,3.1,1.6c0.8,0,1.5-0.2,2.5-0.2c3.1-0.3,1.8-4,3.3-4c0.3,0,0.5,0.1,0.5,0.7c0,1.2-0.1,2.4-0.1,3.6
				c0,1.2,0.1,3.7,0.1,4.5c0,0.5-0.2,0.7-0.4,0.7c-0.6,0-0.7-0.5-1.2-2.4c-0.3-1.2-0.6-1.7-5.1-1.7c-2.2,0-2.7,0.1-2.7,1.2v8.3
				c0,1.8,0.5,2.1,3.1,2.5c0.9,0.1,1.8,0,1.8,0.7c0,0.4-0.2,0.6-1.1,0.6c-0.7,0-1.5-0.2-5.3-0.2c-1.8,0-3.6,0.2-4.9,0.2
				c-0.8,0-1.4-0.1-1.4-0.6c0-0.4,0.2-0.5,2.6-0.8c1-0.1,1.4-0.7,1.4-3.5V14c0-1.5-0.2-1.7-1.3-2c-1.5-0.4-2.5,0-2.5-0.8
				c0-0.5,0.5-0.6,2.1-0.6c0.9,0,2.1,0,3.3,0c1.2,0,2.5,0,3.6,0c1.5,0,3.4,0,5.1-0.1c1.7,0,3.2-0.1,3.9-0.1c0.4,0,0.9,0.1,0.9,0.4
				V16.2z"/>
			<path d="M120.9,34.4c0,1.1,0.5,1.5,1.6,1.5c1.1,0.1,1.5,0.3,1.5,0.7c0,0.3-0.2,0.4-1,0.4c-0.9,0-2.3-0.2-3.7-0.2
				c-1.4,0-2.8,0.2-4.2,0.2c-0.4,0-0.5-0.2-0.5-0.5c0-0.4,0.4-0.6,1.5-0.6c1-0.1,1.7-0.4,1.7-1.5v-14c0-1.2-0.4-1.5-1.2-1.5
				c-1-0.1-1.5-0.3-1.5-0.6c0-0.3,0.2-0.5,0.6-0.5c0.9,0,2.1,0.2,3.7,0.2c1.7,0,3-0.2,3.9-0.2c0.4,0,0.6,0.2,0.6,0.5
				c0,0.4-0.4,0.6-1.5,0.6c-1.1,0.1-1.5,0.3-1.5,1.5V34.4z"/>
			<path d="M129.1,27.3c0-5.9,3.2-9.1,7.1-9.1c3.9,0,7,3.2,7,9.1c0,5.8-2.4,9.1-7.2,9.1C131.5,36.4,129.1,33.1,129.1,27.3z
				 M125.3,27.3c0,5.8,4.5,10.2,10.7,10.2c6.3,0,10.8-4.4,10.8-10.2c0-5.9-4.6-10.2-10.6-10.2C129.8,17.1,125.3,21.4,125.3,27.3z"/>
			<path d="M161.5,22.7c0,2.5-1.4,3.9-4.5,3.9c-1.9,0-2.2-0.2-2.2-0.9v-6.4c0-0.6,0.3-0.8,2-0.8C159.7,18.6,161.5,20,161.5,22.7z
				 M164.4,22.3c0-2.6-2.1-4.6-5.8-4.6c-1.2,0-2.9,0.2-4.9,0.2c-1.8,0-3.1-0.2-3.9-0.2c-0.6,0-0.8,0.1-0.8,0.5
				c0,0.4,0.7,0.3,1.4,0.5c0.9,0.2,1.1,0.3,1.1,1.1v14.8c0,1-0.8,1.2-1.5,1.3c-0.8,0.1-1.5,0.2-1.5,0.7c0,0.3,0.4,0.4,0.5,0.4
				c1.1,0,2.2-0.2,4.2-0.2c1.8,0,2.7,0.2,3.8,0.2c0.7,0,0.9-0.1,0.9-0.4c0-0.4-0.5-0.6-1.8-0.7c-0.9-0.1-1.3-0.5-1.3-1.3v-5.9
				c0-0.9,0.3-1.3,1.3-1.3c1,0,1.8,0.5,2.4,1.5l4.2,7.5c0.3,0.6,0.5,0.7,0.8,0.7c0.8,0,3-0.2,4-0.2c0.4,0,0.6-0.1,0.6-0.4
				c0-0.4-0.3-0.5-0.8-0.6c-1-0.2-1.7-0.5-2.4-1.7l-3.4-5.9c-0.4-0.7-0.6-0.9-0.6-1.1C160.8,26.5,164.4,26.6,164.4,22.3z"/>
			<path d="M175.7,34.4c0,1.1,0.5,1.5,1.6,1.5c1.1,0.1,1.5,0.3,1.5,0.7c0,0.3-0.2,0.4-1,0.4c-0.9,0-2.3-0.2-3.7-0.2
				c-1.4,0-2.8,0.2-4.2,0.2c-0.4,0-0.5-0.2-0.5-0.5c0-0.4,0.4-0.6,1.5-0.6c1-0.1,1.7-0.4,1.7-1.5v-14c0-1.2-0.4-1.5-1.2-1.5
				c-1-0.1-1.5-0.3-1.5-0.6c0-0.3,0.2-0.5,0.6-0.5c0.9,0,2.1,0.2,3.7,0.2c1.7,0,3-0.2,3.9-0.2c0.4,0,0.6,0.2,0.6,0.5
				c0,0.4-0.4,0.6-1.5,0.6c-1.1,0.1-1.5,0.3-1.5,1.5V34.4z"/>
			<path d="M192.5,34c0,1.3,0.9,1.8,1.9,1.9c0.9,0.1,1.9,0.1,1.9,0.7c0,0.4-0.4,0.4-0.7,0.4c-1.5,0-3.1-0.2-4.6-0.2S188,37,186.4,37
				c-0.3,0-0.6-0.2-0.6-0.5c0-0.6,0.9-0.6,1.8-0.6c0.9-0.1,1.8-0.6,1.8-1.9V22.2c0-2.9-0.3-3.1-1.9-3.1c-5.3,0-5.2,3.4-6.2,3.4
				c-0.4,0-0.5-0.2-0.5-0.4c0-0.3,0.2-0.8,1-3.2c0.7-2.1,0.9-2.4,1.2-2.4c0.5,0,0.9,1.6,2.2,1.6h11c0.9,0,2.4-0.1,3.2-0.5
				c0.6-0.3,0.6-0.9,0.9-0.9c0.4,0,0.3,0.5,0.3,2.7c0,2.4-0.3,2.8-0.7,2.8c-0.5,0-0.4-0.6-0.9-1.6c-0.4-0.9-1.2-1.5-4-1.5
				c-2.4,0-2.6,0.2-2.6,3.1V34z"/>
			<path d="M206.5,27.3c0-5.9,3.2-9.1,7.1-9.1c3.9,0,7,3.2,7,9.1c0,5.8-2.4,9.1-7.2,9.1C208.9,36.4,206.5,33.1,206.5,27.3z
				 M202.7,27.3c0,5.8,4.5,10.2,10.7,10.2c6.3,0,10.8-4.4,10.8-10.2c0-5.9-4.6-10.2-10.6-10.2C207.1,17.1,202.7,21.4,202.7,27.3z"/>
		</g>
		<g>
			<path class="st0" d="M89,47.7c0,0.1,0,0.2-0.2,0.2c-0.1,0-0.2-0.1-0.2-0.1c-0.5-1.3,0-1.8-2.8-1.8c-0.9,0-1.1,0.1-1.1,0.7v3
				c0,0.6,0.1,0.7,1.2,0.7c0.3,0,0.6-0.1,0.9-0.1c1.1-0.1,0.7-1.7,1.2-1.7c0.1,0,0.2,0,0.2,0.3c0,0.5,0,1,0,1.5c0,0.5,0,1.5,0,1.9
				c0,0.2-0.1,0.3-0.1,0.3c-0.2,0-0.3-0.2-0.4-1c-0.1-0.5-0.2-0.7-1.9-0.7c-0.8,0-1,0.1-1,0.5v3.5c0,0.8,0.2,0.9,1.2,1
				c0.3,0.1,0.7,0,0.7,0.3c0,0.2-0.1,0.3-0.4,0.3c-0.3,0-0.6-0.1-2-0.1c-0.7,0-1.3,0.1-1.8,0.1c-0.3,0-0.5,0-0.5-0.3
				c0-0.2,0.1-0.2,1-0.3c0.4-0.1,0.5-0.3,0.5-1.5v-7.6c0-0.6-0.1-0.7-0.5-0.8c-0.6-0.2-0.9,0-0.9-0.3c0-0.2,0.2-0.2,0.8-0.2
				c0.4,0,0.8,0,1.2,0c0.5,0,0.9,0,1.4,0c0.6,0,1.3,0,1.9,0c0.6,0,1.2,0,1.5,0c0.2,0,0.3,0.1,0.3,0.2V47.7z"/>
			<path class="st0" d="M92.3,52.2C92.2,52.2,92.2,52.2,92.3,52.2c-0.1-0.1,0-0.3,0.1-0.7L93,50c0-0.1,0.1-0.1,0.1-0.1
				c0,0,0.1,0.1,0.1,0.1l0.5,1.5c0.1,0.4,0.2,0.6,0.2,0.7c0,0.1,0,0.1-0.1,0.1H92.3z M93.9,52.9c0.1,0,0.3,0.1,0.3,0.3l0.1,0.4
				c0.4,1.4,0.5,1.8,0.5,2.1c0,0.4-1,0.1-1,0.5c0,0.1,0,0.2,0.2,0.2c0.2,0,0.6-0.1,1.4-0.1c0.5,0,0.9,0.1,1.2,0.1
				c0.3,0,0.4,0,0.4-0.2c0-0.3-0.6,0.1-1-0.8l-2.5-7.1c0-0.1-0.1-0.2-0.2-0.2c-0.1,0-0.2,0.1-0.2,0.2l-2.9,7.1
				c-0.3,0.7-1.1,0.5-1.1,0.9c0,0.1,0,0.1,0.2,0.1c0.2,0,0.3-0.1,1.1-0.1c0.8,0,0.9,0.1,1.1,0.1c0.2,0,0.3-0.1,0.3-0.2
				c0-0.3-0.9-0.1-0.9-0.6c0-0.3,0.2-0.9,0.4-1.5l0.4-0.9c0.1-0.2,0.2-0.3,0.3-0.3H93.9z"/>
			<path class="st0" d="M102.3,48.1c1.2,0,2.2,0.4,2.3,0.7c0,0.5,0.1,0.7,0.1,0.9c0,0.2,0,0.2-0.1,0.2c-0.2,0-0.6-1.4-2.2-1.4
				c-1.8,0-3.2,1.6-3.2,3.8c0,2.3,1.1,3.8,2.8,3.9c2.2,0,2.4-1.8,2.7-1.8c0.2,0,0.2,0.2,0.2,0.8c0,0.9-1.4,1.4-2.8,1.4
				c-2.5,0-4.4-1.8-4.4-4.3C97.7,49.9,99.3,48.1,102.3,48.1z"/>
			<path class="st0" d="M110.1,55.1c0,0.6,0.4,0.8,0.7,0.8c0.4,0,0.7,0.1,0.7,0.3c0,0.2-0.2,0.2-0.3,0.2c-0.6,0-1.1-0.1-1.7-0.1
				c-0.6,0-1.1,0.1-1.7,0.1c-0.1,0-0.2-0.1-0.2-0.2c0-0.2,0.3-0.2,0.7-0.3c0.3,0,0.7-0.2,0.7-0.8v-4.9c0-1.2-0.1-1.3-0.7-1.3
				c-2,0-1.9,1.4-2.3,1.4c-0.2,0-0.2-0.1-0.2-0.2c0-0.1,0.1-0.3,0.4-1.3c0.3-0.9,0.3-1,0.5-1c0.2,0,0.3,0.7,0.8,0.7h4.1
				c0.3,0,0.9,0,1.2-0.2c0.2-0.1,0.2-0.4,0.4-0.4c0.2,0,0.1,0.2,0.1,1.1c0,1-0.1,1.2-0.3,1.2c-0.2,0-0.2-0.3-0.3-0.7
				c-0.2-0.4-0.5-0.6-1.5-0.6c-0.9,0-1,0.1-1,1.3V55.1z"/>
			<path class="st0" d="M115.3,52.3c0-2.5,1.2-3.8,2.7-3.8c1.5,0,2.6,1.3,2.6,3.8c0,2.4-0.9,3.8-2.7,3.8
				C116.2,56.1,115.3,54.7,115.3,52.3z M113.9,52.3c0,2.4,1.7,4.3,4,4.3c2.4,0,4.1-1.8,4.1-4.3c0-2.5-1.7-4.3-4-4.3
				C115.6,48.1,113.9,49.9,113.9,52.3z"/>
			<path class="st0" d="M127.9,50.4c0,1-0.5,1.6-1.7,1.6c-0.7,0-0.8-0.1-0.8-0.4V49c0-0.2,0.1-0.3,0.8-0.3
				C127.2,48.7,127.9,49.3,127.9,50.4z M129,50.2c0-1.1-0.8-1.9-2.2-1.9c-0.5,0-1.1,0.1-1.8,0.1c-0.7,0-1.1-0.1-1.5-0.1
				c-0.2,0-0.3,0-0.3,0.2s0.3,0.1,0.5,0.2c0.3,0.1,0.4,0.1,0.4,0.4v6.2c0,0.4-0.3,0.5-0.6,0.6c-0.3,0-0.6,0.1-0.6,0.3
				c0,0.1,0.2,0.2,0.2,0.2c0.4,0,0.8-0.1,1.6-0.1c0.7,0,1,0.1,1.4,0.1c0.3,0,0.3,0,0.3-0.2c0-0.2-0.2-0.2-0.7-0.3
				c-0.3,0-0.5-0.2-0.5-0.5v-2.5c0-0.4,0.1-0.5,0.5-0.5c0.4,0,0.7,0.2,0.9,0.6l1.6,3.1c0.1,0.2,0.2,0.3,0.3,0.3
				c0.3,0,1.1-0.1,1.5-0.1c0.2,0,0.2-0.1,0.2-0.2c0-0.2-0.1-0.2-0.3-0.2c-0.4-0.1-0.6-0.2-0.9-0.7l-1.3-2.5
				c-0.1-0.3-0.2-0.4-0.2-0.5C127.6,52,129,52,129,50.2z"/>
			<path class="st0" d="M133.4,55.3c0,0.5,0.2,0.6,0.6,0.6c0.4,0,0.6,0.1,0.6,0.3c0,0.1-0.1,0.2-0.4,0.2c-0.3,0-0.9-0.1-1.4-0.1
				c-0.5,0-1.1,0.1-1.6,0.1c-0.1,0-0.2-0.1-0.2-0.2c0-0.2,0.2-0.2,0.5-0.3c0.4,0,0.6-0.2,0.6-0.6v-5.9c0-0.5-0.1-0.6-0.5-0.6
				c-0.4,0-0.6-0.1-0.6-0.3c0-0.1,0.1-0.2,0.2-0.2c0.3,0,0.8,0.1,1.4,0.1c0.6,0,1.1-0.1,1.5-0.1c0.1,0,0.2,0.1,0.2,0.2
				c0,0.2-0.2,0.2-0.6,0.3c-0.4,0-0.5,0.1-0.5,0.6V55.3z"/>
			<path class="st0" d="M142.7,54.1c0,0.1,0.1,0.1,0.1,0.1c0,0,0.1-0.1,0.1-0.2v-4.6c0-0.6-0.1-0.6-0.5-0.7
				c-0.6-0.1-0.8-0.1-0.8-0.3c0-0.1,0.1-0.2,0.2-0.2c0.3,0,0.7,0.1,1.3,0.1c0.6,0,0.8-0.1,1.1-0.1c0.2,0,0.3,0.1,0.3,0.2
				c0,0.2-0.2,0.2-0.6,0.2c-0.4,0.1-0.6,0.3-0.6,0.8v6.1c0,0.5,0,0.7,0,0.8c0,0.1,0,0.2-0.1,0.2c-0.1,0-0.2-0.1-0.3-0.2l-5.6-6.4
				c0-0.1-0.1-0.1-0.1-0.1c0,0-0.1,0.3-0.1,0.6v3.3c0,1.9,0.2,2,0.8,2c0.4,0,0.8,0.1,0.8,0.3c0,0.2-0.1,0.2-0.3,0.2
				c-0.3,0-0.7-0.1-1.4-0.1c-0.7,0-1.1,0.1-1.4,0.1c-0.1,0-0.2,0-0.2-0.2c0-0.4,0.9-0.2,1.1-0.5c0.1-0.2,0.2-1,0.2-1.8v-4.2
				c0-0.8-0.3-1-0.8-1c-0.4,0-0.5-0.1-0.5-0.2c0-0.1,0-0.2,0.2-0.2c0.3,0,0.9,0.1,1.5,0.1c0.4,0,0.5,0.1,0.6,0.2L142.7,54.1z"/>
			<path class="st0" d="M151.6,53.8c0-0.6-0.4-0.7-1-0.8c-0.4,0-0.6,0-0.6-0.3c0-0.1,0.1-0.3,0.3-0.3c0.3,0,0.8,0.1,1.5,0.1
				c0.6,0,1.2-0.1,1.6-0.1c0.2,0,0.3,0.1,0.3,0.3c0,0.2-0.2,0.2-0.6,0.3c-0.3,0-0.5,0.3-0.5,0.8v1.7c0,0.5-1.9,1-3.2,1
				c-2.8,0-4.2-1.8-4.2-4.2c0-2.7,2.1-4.3,4.3-4.3c1.5,0,2.8,0.5,2.8,0.9c0.1,0.5,0.1,0.8,0.1,1.2c0,0.1-0.1,0.2-0.2,0.2
				c-0.3,0-0.5-1.8-2.5-1.8c-1.8,0-3.1,1.7-3.1,3.7c0,2.4,1.5,3.9,3.2,3.9c1.1,0,1.7-0.3,1.7-0.9V53.8z"/>
			<path class="st0" d="M162.5,55.2c0,0.6,0.4,0.7,0.7,0.7c0.3,0,0.7,0.1,0.7,0.3c0,0.2-0.1,0.2-0.4,0.2c-0.4,0-1.1-0.1-1.6-0.1
				c-0.5,0-1,0.1-1.4,0.1c-0.3,0-0.4,0-0.4-0.2c0-0.2,0.3-0.2,0.6-0.3c0.3-0.1,0.6-0.1,0.6-0.7V53c0-0.4-0.2-0.7-0.6-1.2l-1.7-2.5
				c-0.6-0.8-1-0.5-1-0.8c0-0.1,0.1-0.2,0.3-0.2c0.5,0,0.9,0.1,1.4,0.1c0.4,0,0.9-0.1,1.3-0.1c0.2,0,0.2,0.1,0.2,0.2
				c0,0.3-0.8,0.1-0.8,0.4c0,0.6,1.7,2.8,2,3c0.1-0.1,1.7-2.4,1.7-2.9c0-0.4-0.8-0.3-0.8-0.6c0-0.1,0.1-0.2,0.2-0.2
				c0.2,0,0.4,0.1,1,0.1c0.6,0,0.8-0.1,1.1-0.1c0.2,0,0.2,0,0.2,0.2c0,0.2-0.6,0.3-1.3,1.2l-1.4,1.9c-0.6,0.8-0.8,1.1-0.8,1.6V55.2z
				"/>
			<path class="st0" d="M180.2,46.5c0-0.5-0.2-0.5-1.3-0.6c-0.2,0-0.5,0-0.5-0.3c0-0.3,0.3-0.3,0.5-0.3c0.6,0,1.2,0.1,1.8,0.1
				c0.5,0,1.1-0.1,1.4-0.1c0.2,0,0.4,0.1,0.4,0.3c0,0.2-0.2,0.3-0.5,0.3c-1,0-1.1,0.3-1.1,1.7v8.7c0,0.3,0,0.7-0.3,0.7
				c-0.2,0-0.4-0.3-0.6-0.5l-6.9-8.9c0,0-0.1-0.1-0.1-0.1c0,0,0,0.1,0,0.3l0,5.8c0,0.4,0,0.7,0,1.1c0,1,0.4,1.1,0.8,1.1
				c0.8,0.1,1.3,0.1,1.3,0.3c0,0.2-0.1,0.2-0.3,0.2c-0.5,0-1.2-0.1-1.9-0.1c-1.3,0-1.6,0.1-2.1,0.1c-0.1,0-0.3,0-0.3-0.2
				c0-0.3,0.1-0.3,1.2-0.4c0.3,0,0.5-0.2,0.5-0.5l0.2-7.1c0-0.4,0-0.8,0-0.9c0-1.2-0.2-1.3-0.7-1.3c-1-0.1-1.1-0.1-1.1-0.4
				c0-0.2,0.2-0.3,0.5-0.3c0.2,0,0.6,0.1,1.1,0.1c0.5,0,0.7-0.1,0.9-0.1c0.4,0,0.5,0.3,0.6,0.4l6.3,8.3c0,0,0,0.1,0.1,0.1
				c0.1,0,0.1-0.2,0.1-0.5V46.5z"/>
			<path class="st0" d="M185.8,51.6c0,0.2,0.1,0.3,0.5,0.3h1.2c0.5,0,0.7,0,1-0.3c0.3-0.2,0.3-0.8,0.5-0.8c0.1,0,0.2,0.1,0.2,0.3
				c0,0.2,0,0.4-0.1,1.1c0,0.6,0,1.1,0,1.3c0,0.1,0,0.2-0.2,0.2c-0.2,0-0.1-0.4-0.4-1c-0.1-0.3-0.6-0.4-1.1-0.4h-1.3
				c-0.3,0-0.4,0.1-0.4,0.3v2.6c0,0.4,0.3,0.7,1.8,0.7c0.9,0,1.5-0.2,1.8-0.6c0.3-0.5,0.4-1,0.6-1c0.1,0,0.1,0.1,0.1,0.2
				c0,0.1-0.1,1-0.2,1.4c-0.1,0.3-0.1,0.6-0.2,0.6c-0.4,0-1.5-0.1-3.1-0.1c-1.4,0-2.5,0.1-2.9,0.1c-0.2,0-0.3-0.1-0.3-0.2
				c0-0.3,0.3-0.2,0.6-0.3c0.4-0.1,0.6-0.2,0.6-0.8v-5.4c0-0.9-0.1-1-0.5-1c-0.4,0-0.5-0.1-0.5-0.2s0-0.2,0.2-0.2
				c0.5,0,1.1,0.1,2.5,0.1c1.4,0,2.3-0.1,3.1-0.1c0.4,0,0.4,0.1,0.4,0.3v1.3c0,0.2,0,0.3-0.1,0.3c-0.2,0-0.2-0.6-0.6-0.9
				c-0.4-0.4-1-0.6-2.1-0.6c-1.2,0-1.2,0.2-1.2,0.5V51.6z"/>
			<path class="st0" d="M197.5,53.8c0-0.6-0.4-0.7-1-0.8c-0.4,0-0.6,0-0.6-0.3c0-0.1,0.1-0.3,0.3-0.3c0.3,0,0.8,0.1,1.5,0.1
				c0.6,0,1.2-0.1,1.6-0.1c0.2,0,0.3,0.1,0.3,0.3c0,0.2-0.2,0.2-0.6,0.3c-0.3,0-0.5,0.3-0.5,0.8v1.7c0,0.5-1.9,1-3.2,1
				c-2.8,0-4.2-1.8-4.2-4.2c0-2.7,2.1-4.3,4.3-4.3c1.5,0,2.8,0.5,2.8,0.9c0.1,0.5,0.1,0.8,0.1,1.2c0,0.1-0.1,0.2-0.2,0.2
				c-0.3,0-0.5-1.8-2.5-1.8c-1.8,0-3.1,1.7-3.1,3.7c0,2.4,1.5,3.9,3.2,3.9c1.1,0,1.7-0.3,1.7-0.9V53.8z"/>
			<path class="st0" d="M201.7,52.3c0-2.5,1.2-3.8,2.7-3.8c1.5,0,2.6,1.3,2.6,3.8c0,2.4-0.9,3.8-2.7,3.8
				C202.6,56.1,201.7,54.7,201.7,52.3z M200.2,52.3c0,2.4,1.7,4.3,4,4.3c2.4,0,4.1-1.8,4.1-4.3c0-2.5-1.7-4.3-4-4.3
				C201.9,48.1,200.2,49.9,200.2,52.3z"/>
			<path class="st0" d="M213.9,48.1c1.2,0,2.2,0.4,2.3,0.7c0,0.5,0.1,0.7,0.1,0.9c0,0.2,0,0.2-0.1,0.2c-0.2,0-0.6-1.4-2.2-1.4
				c-1.8,0-3.2,1.6-3.2,3.8c0,2.3,1.1,3.8,2.8,3.9c2.2,0,2.4-1.8,2.7-1.8c0.2,0,0.2,0.2,0.2,0.8c0,0.9-1.4,1.4-2.8,1.4
				c-2.5,0-4.4-1.8-4.4-4.3C209.2,49.9,210.8,48.1,213.9,48.1z"/>
			<path class="st0" d="M219.8,55.3c0,0.5,0.2,0.6,0.6,0.6c0.4,0,0.5,0.1,0.5,0.3c0,0.1-0.1,0.2-0.4,0.2c-0.3,0-0.9-0.1-1.4-0.1
				c-0.5,0-1.1,0.1-1.6,0.1c-0.1,0-0.2-0.1-0.2-0.2c0-0.2,0.2-0.2,0.6-0.3c0.4,0,0.6-0.2,0.6-0.6v-5.9c0-0.5-0.1-0.6-0.5-0.6
				c-0.4,0-0.5-0.1-0.5-0.3c0-0.1,0.1-0.2,0.2-0.2c0.3,0,0.8,0.1,1.4,0.1c0.6,0,1.1-0.1,1.5-0.1c0.1,0,0.2,0.1,0.2,0.2
				c0,0.2-0.2,0.2-0.6,0.3c-0.4,0-0.6,0.1-0.6,0.6V55.3z"/>
			<path class="st0" d="M223.2,52.3c0-2.5,1.2-3.8,2.7-3.8c1.5,0,2.6,1.3,2.6,3.8c0,2.4-0.9,3.8-2.7,3.8
				C224.1,56.1,223.2,54.7,223.2,52.3z M221.8,52.3c0,2.4,1.7,4.3,4,4.3c2.4,0,4.1-1.8,4.1-4.3c0-2.5-1.7-4.3-4-4.3
				C223.5,48.1,221.8,49.9,221.8,52.3z"/>
			<path class="st0" d="M231,54.2c0-0.3,0.1-0.4,0.2-0.4c0.4,0-0.1,2.3,2.3,2.3c1.2,0,1.7-0.6,1.7-1.4c0-1.9-3.9-1.7-3.9-4.5
				c0-1.4,1-2.2,2.5-2.2c1.1,0,1.8,0.5,1.8,0.7c0,0.3,0.1,1,0.1,1.3c0,0.2,0,0.3-0.2,0.3c-0.2,0-0.1-0.2-0.4-0.8
				c-0.2-0.4-0.6-1-1.7-1c-0.8,0-1.3,0.4-1.3,1.3c0,1.8,4,1.6,4,4.3c0,1.5-1.1,2.5-2.7,2.5c-1.5,0-2.6-0.4-2.6-1V54.2z"/>
		</g>
		<g>
			<path class="st0" d="M124.5,63.8c0,0.1,0,0.2-0.2,0.2c-0.1,0-0.2-0.1-0.2-0.1c-0.5-1.3,0-1.8-2.8-1.8c-0.9,0-1.1,0.1-1.1,0.7v3
				c0,0.6,0.1,0.7,1.2,0.7c0.3,0,0.6-0.1,0.9-0.1c1.1-0.1,0.7-1.7,1.2-1.7c0.1,0,0.2,0,0.2,0.3c0,0.5,0,1,0,1.5c0,0.5,0,1.5,0,1.9
				c0,0.2-0.1,0.3-0.1,0.3c-0.2,0-0.3-0.2-0.4-1c-0.1-0.5-0.2-0.7-1.9-0.7c-0.8,0-1,0.1-1,0.5v3.5c0,0.8,0.2,0.9,1.2,1
				c0.3,0.1,0.7,0,0.7,0.3c0,0.2-0.1,0.3-0.4,0.3c-0.3,0-0.6-0.1-2-0.1c-0.7,0-1.3,0.1-1.8,0.1c-0.3,0-0.5,0-0.5-0.3
				c0-0.2,0.1-0.2,1-0.3c0.4-0.1,0.5-0.3,0.5-1.5v-7.6c0-0.6-0.1-0.7-0.5-0.8c-0.6-0.2-0.9,0-0.9-0.3c0-0.2,0.2-0.2,0.8-0.2
				c0.4,0,0.8,0,1.2,0c0.5,0,0.9,0,1.4,0c0.6,0,1.3,0,1.9,0c0.6,0,1.2,0,1.5,0c0.2,0,0.3,0.1,0.3,0.2V63.8z"/>
			<path class="st0" d="M127.9,71.4c0,0.5,0.2,0.6,0.6,0.6c0.4,0,0.6,0.1,0.6,0.3c0,0.1-0.1,0.2-0.4,0.2c-0.3,0-0.9-0.1-1.4-0.1
				c-0.5,0-1.1,0.1-1.6,0.1c-0.1,0-0.2-0.1-0.2-0.2c0-0.2,0.2-0.2,0.6-0.3c0.4,0,0.6-0.2,0.6-0.6v-5.9c0-0.5-0.1-0.6-0.5-0.6
				c-0.4,0-0.6-0.1-0.6-0.3c0-0.1,0.1-0.2,0.2-0.2c0.3,0,0.8,0.1,1.4,0.1c0.6,0,1.1-0.1,1.5-0.1c0.1,0,0.2,0.1,0.2,0.2
				c0,0.2-0.2,0.2-0.5,0.3c-0.4,0-0.6,0.1-0.6,0.6V71.4z"/>
			<path class="st0" d="M137.2,70.3c0,0.1,0.1,0.1,0.1,0.1c0,0,0.1-0.1,0.1-0.2v-4.6c0-0.6-0.1-0.6-0.5-0.7
				c-0.6-0.1-0.8-0.1-0.8-0.3c0-0.1,0.1-0.2,0.2-0.2c0.3,0,0.7,0.1,1.3,0.1c0.6,0,0.8-0.1,1.1-0.1c0.2,0,0.3,0.1,0.3,0.2
				c0,0.2-0.2,0.2-0.5,0.2c-0.4,0.1-0.6,0.3-0.6,0.8v6.1c0,0.5,0,0.7,0,0.8c0,0.1,0,0.2-0.1,0.2c-0.1,0-0.2-0.1-0.3-0.2l-5.6-6.4
				c0-0.1-0.1-0.1-0.1-0.1c0,0-0.1,0.3-0.1,0.6v3.3c0,1.9,0.2,2,0.8,2c0.4,0,0.8,0.1,0.8,0.3c0,0.2-0.1,0.2-0.3,0.2
				c-0.3,0-0.7-0.1-1.4-0.1c-0.7,0-1.1,0.1-1.4,0.1c-0.1,0-0.2,0-0.2-0.2c0-0.4,0.9-0.2,1.1-0.5c0.1-0.2,0.2-1,0.2-1.8v-4.2
				c0-0.8-0.3-1-0.8-1c-0.4,0-0.5-0.1-0.5-0.2c0-0.1,0-0.2,0.2-0.2c0.3,0,0.9,0.1,1.5,0.1c0.4,0,0.5,0.1,0.6,0.2L137.2,70.3z"/>
			<path class="st0" d="M142.2,68.4C142.1,68.4,142.1,68.4,142.2,68.4c-0.1-0.1,0-0.3,0.1-0.7l0.5-1.6c0-0.1,0.1-0.1,0.1-0.1
				c0,0,0.1,0.1,0.1,0.1l0.5,1.5c0.1,0.4,0.2,0.6,0.2,0.7c0,0.1,0,0.1-0.1,0.1H142.2z M143.8,69.1c0.1,0,0.3,0.1,0.3,0.3l0.1,0.4
				c0.4,1.4,0.5,1.8,0.5,2.1c0,0.4-1,0.1-1,0.5c0,0.1,0,0.2,0.2,0.2c0.2,0,0.6-0.1,1.4-0.1c0.6,0,0.9,0.1,1.2,0.1
				c0.3,0,0.4,0,0.4-0.2c0-0.3-0.6,0.1-1-0.8l-2.5-7.1c0-0.1-0.1-0.2-0.2-0.2s-0.2,0.1-0.2,0.2l-2.9,7.1c-0.3,0.7-1.1,0.5-1.1,0.9
				c0,0.1,0,0.1,0.2,0.1c0.2,0,0.3-0.1,1.1-0.1c0.8,0,0.9,0.1,1.1,0.1c0.2,0,0.3-0.1,0.3-0.2c0-0.3-0.9-0.1-0.9-0.6
				c0-0.3,0.2-0.9,0.4-1.5l0.4-0.9c0.1-0.2,0.2-0.3,0.3-0.3H143.8z"/>
			<path class="st0" d="M154.8,70.3c0,0.1,0.1,0.1,0.1,0.1c0,0,0.1-0.1,0.1-0.2v-4.6c0-0.6-0.1-0.6-0.5-0.7
				c-0.5-0.1-0.8-0.1-0.8-0.3c0-0.1,0.1-0.2,0.2-0.2c0.3,0,0.7,0.1,1.3,0.1c0.6,0,0.8-0.1,1.1-0.1c0.2,0,0.3,0.1,0.3,0.2
				c0,0.2-0.2,0.2-0.6,0.2c-0.4,0.1-0.6,0.3-0.6,0.8v6.1c0,0.5,0,0.7,0,0.8c0,0.1,0,0.2-0.1,0.2c-0.1,0-0.2-0.1-0.3-0.2l-5.6-6.4
				c0-0.1-0.1-0.1-0.1-0.1c0,0-0.1,0.3-0.1,0.6v3.3c0,1.9,0.2,2,0.8,2c0.4,0,0.8,0.1,0.8,0.3c0,0.2-0.1,0.2-0.3,0.2
				c-0.3,0-0.7-0.1-1.4-0.1c-0.7,0-1.1,0.1-1.4,0.1c-0.1,0-0.2,0-0.2-0.2c0-0.4,0.9-0.2,1.1-0.5c0.1-0.2,0.2-1,0.2-1.8v-4.2
				c0-0.8-0.3-1-0.8-1c-0.4,0-0.5-0.1-0.5-0.2c0-0.1,0-0.2,0.2-0.2c0.3,0,0.9,0.1,1.5,0.1c0.4,0,0.5,0.1,0.6,0.2L154.8,70.3z"/>
			<path class="st0" d="M162.1,64.2c1.2,0,2.2,0.4,2.3,0.7c0,0.5,0.1,0.7,0.1,0.9c0,0.2,0,0.2-0.1,0.2c-0.2,0-0.6-1.4-2.2-1.4
				c-1.8,0-3.2,1.6-3.2,3.8c0,2.3,1.1,3.8,2.8,3.9c2.2,0,2.4-1.8,2.7-1.8c0.2,0,0.2,0.2,0.2,0.8c0,0.9-1.4,1.4-2.8,1.4
				c-2.5,0-4.4-1.8-4.4-4.3C157.5,66.1,159.1,64.2,162.1,64.2z"/>
			<path class="st0" d="M168.1,71.4c0,0.5,0.2,0.6,0.6,0.6c0.4,0,0.5,0.1,0.5,0.3c0,0.1-0.1,0.2-0.4,0.2c-0.3,0-0.9-0.1-1.4-0.1
				c-0.5,0-1.1,0.1-1.6,0.1c-0.1,0-0.2-0.1-0.2-0.2c0-0.2,0.2-0.2,0.6-0.3c0.4,0,0.6-0.2,0.6-0.6v-5.9c0-0.5-0.1-0.6-0.5-0.6
				c-0.4,0-0.6-0.1-0.6-0.3c0-0.1,0.1-0.2,0.2-0.2c0.3,0,0.8,0.1,1.4,0.1c0.6,0,1.1-0.1,1.5-0.1c0.1,0,0.2,0.1,0.2,0.2
				c0,0.2-0.2,0.2-0.6,0.3c-0.4,0-0.6,0.1-0.6,0.6V71.4z"/>
			<path class="st0" d="M172.8,67.8c0,0.2,0.1,0.3,0.5,0.3h1.2c0.5,0,0.7,0,1-0.3c0.3-0.2,0.3-0.8,0.5-0.8c0.1,0,0.2,0.1,0.2,0.3
				c0,0.2,0,0.4-0.1,1.1c0,0.6,0,1.1,0,1.3c0,0.1,0,0.2-0.2,0.2c-0.2,0-0.1-0.4-0.4-1c-0.1-0.3-0.6-0.4-1.1-0.4h-1.3
				c-0.3,0-0.4,0.1-0.4,0.3v2.6c0,0.4,0.3,0.7,1.8,0.7c0.9,0,1.5-0.2,1.8-0.6c0.3-0.5,0.4-1,0.6-1c0.1,0,0.1,0.1,0.1,0.2
				c0,0.1-0.1,1-0.2,1.4c-0.1,0.3-0.1,0.6-0.2,0.6c-0.4,0-1.5-0.1-3.1-0.1c-1.4,0-2.5,0.1-2.9,0.1c-0.2,0-0.3-0.1-0.3-0.2
				c0-0.3,0.3-0.2,0.6-0.3c0.4-0.1,0.6-0.2,0.6-0.8v-5.4c0-0.9-0.1-1-0.5-1c-0.4,0-0.5-0.1-0.5-0.2c0-0.1,0-0.2,0.2-0.2
				c0.5,0,1.1,0.1,2.5,0.1c1.4,0,2.3-0.1,3.1-0.1c0.4,0,0.4,0.1,0.4,0.3v1.3c0,0.2,0,0.3-0.1,0.3c-0.2,0-0.2-0.6-0.6-0.9
				c-0.4-0.4-1-0.6-2.1-0.6c-1.2,0-1.2,0.2-1.2,0.5V67.8z"/>
			<path class="st0" d="M183.2,66.6c0,1-0.5,1.6-1.7,1.6c-0.7,0-0.8-0.1-0.8-0.4v-2.7c0-0.2,0.1-0.3,0.8-0.3
				C182.5,64.9,183.2,65.4,183.2,66.6z M184.3,66.4c0-1.1-0.8-1.9-2.2-1.9c-0.5,0-1.1,0.1-1.8,0.1c-0.7,0-1.1-0.1-1.5-0.1
				c-0.2,0-0.3,0-0.3,0.2c0,0.2,0.3,0.1,0.5,0.2c0.3,0.1,0.4,0.1,0.4,0.4v6.2c0,0.4-0.3,0.5-0.6,0.6c-0.3,0-0.6,0.1-0.6,0.3
				c0,0.1,0.2,0.2,0.2,0.2c0.4,0,0.8-0.1,1.6-0.1c0.7,0,1,0.1,1.4,0.1c0.3,0,0.3,0,0.3-0.2c0-0.2-0.2-0.2-0.7-0.3
				c-0.3,0-0.5-0.2-0.5-0.5v-2.5c0-0.4,0.1-0.5,0.5-0.5c0.4,0,0.7,0.2,0.9,0.6l1.6,3.1c0.1,0.2,0.2,0.3,0.3,0.3
				c0.3,0,1.1-0.1,1.5-0.1c0.2,0,0.2-0.1,0.2-0.2c0-0.2-0.1-0.2-0.3-0.2c-0.4-0.1-0.6-0.2-0.9-0.7l-1.3-2.5
				c-0.1-0.3-0.2-0.4-0.2-0.5C182.9,68.1,184.3,68.2,184.3,66.4z"/>
			<path class="st0" d="M187.7,68.5c0-2.5,1.2-3.8,2.7-3.8c1.5,0,2.6,1.3,2.6,3.8c0,2.4-0.9,3.8-2.7,3.8
				C188.6,72.3,187.7,70.9,187.7,68.5z M186.3,68.5c0,2.4,1.7,4.3,4,4.3c2.4,0,4.1-1.8,4.1-4.3c0-2.5-1.7-4.3-4-4.3
				C188,64.2,186.3,66,186.3,68.5z"/>
			<path class="st0" d="M195.5,70.4c0-0.3,0.1-0.4,0.2-0.4c0.4,0-0.1,2.3,2.3,2.3c1.2,0,1.7-0.6,1.7-1.4c0-1.9-3.9-1.7-3.9-4.5
				c0-1.4,1-2.2,2.5-2.2c1.1,0,1.8,0.5,1.8,0.7c0,0.3,0.1,1,0.1,1.3c0,0.2,0,0.3-0.2,0.3c-0.2,0-0.1-0.2-0.4-0.8
				c-0.2-0.4-0.6-1-1.7-1c-0.8,0-1.3,0.4-1.3,1.3c0,1.8,4,1.6,4,4.3c0,1.5-1.1,2.5-2.7,2.5c-1.5,0-2.6-0.4-2.6-1V70.4z"/>
		</g>
	</g>
	<g>
		<polygon class="st1" points="44.8,12.3 20.5,36.6 23.3,39.4 34.2,28.5 40,34.3 29.1,45.2 37.7,53.8 26.6,64.9 1.8,40.1 37.2,4.7 
					"/>
		<polygon class="st0" points="29.4,67.7 53.8,43.4 50.9,40.6 39.9,51.6 34.1,45.8 45.1,34.8 36.5,26.2 47.6,15.1 72.4,39.9 
			37,75.3 		"/>
	</g>
</g>
</svg>
